<svg width="960" height="360" viewBox="0 0 960 360" fill="none" xmlns="http://www.w3.org/2000/svg">
  <path
    d="M22 220C70 150 200 120 340 120H440L520 80H620L720 90L850 60H920V300H860L800 250H620L540 260H400C260 260 120 250 40 240L22 220Z"
    fill="#FDFDFD"
    stroke="#9CA3AF"
    stroke-width="4"
    stroke-linejoin="round"
  />
  <path
    d="M180 140H260"
    stroke="#9CA3AF"
    stroke-width="4"
    stroke-linecap="round"
  />
  <path
    d="M240 200H320"
    stroke="#9CA3AF"
    stroke-width="4"
    stroke-linecap="round"
  />
  <path
    d="M340 120L320 70"
    stroke="#9CA3AF"
    stroke-width="4"
    stroke-linecap="round"
  />
  <path
    d="M520 80L520 40"
    stroke="#9CA3AF"
    stroke-width="4"
    stroke-linecap="round"
  />
  <circle cx="540" cy="90" r="28" fill="#111827" />
  <rect x="720" y="90" width="160" height="120" rx="40" fill="#D1D5DB" />
  <rect x="660" y="140" width="40" height="60" fill="#9CA3AF" />
  <rect x="470" y="240" width="40" height="18" rx="9" fill="#111827" />
  <rect x="520" y="240" width="40" height="18" rx="9" fill="#111827" />
  <path
    d="M120 220H220"
    stroke="#111827"
    stroke-width="12"
    stroke-linecap="round"
  />
</svg>

